<svg width="260" height="262" viewBox="0 0 260 262" fill="none" xmlns="http://www.w3.org/2000/svg">
  <circle cx="112" cy="72.002" r="25" fill="url(#paint0_radial)"/>
    <g opacity="0.67" filter="url(#filter0_f)">
     <path d="M164.965 75.365C181.708 90.4756 220.999 106.499 205.889 123.242C190.778 139.985 104.41 187.813 68.4482 169.326C51.705 154.216 83.4487 105.562 98.5593 88.8184C113.67 72.0752 148.221 60.2544 164.965 75.365Z" fill="url(#paint1_linear)" fill-opacity="0.3"/>
    </g>
    <g filter="url(#filter1_ii)">
     <path fill-rule="evenodd" clip-rule="evenodd" d="M121.197 140.619H106.179C89.8156 140.619 76.5503 127.354 76.5503 110.99C76.5503 94.6265 89.8155 81.3613 106.179 81.3613H107.803C113.546 81.3613 118.928 82.9107 123.553 85.6144C129.565 67.8036 146.409 54.9797 166.249 54.9797H168.481C192.13 54.9797 211.301 74.1508 211.301 97.7995C211.301 121.448 192.13 140.619 168.481 140.619H121.197V140.619Z" fill="white"/>
    </g>
    <defs>
      <filter id="filter0_f" x="0" y="0" width="259.378" height="262" filterUnits="userSpaceOnUse" color-interpolation-filters="sRGB">
        <feFlood flood-opacity="0" result="BackgroundImageFix"/>
        <feBlend mode="normal" in="SourceGraphic" in2="BackgroundImageFix" result="shape"/>
        <feGaussianBlur stdDeviation="22.5" result="effect1_foregroundBlur"/>
      </filter>
      <filter id="filter1_ii" x="58.5503" y="39.9797" width="160.75" height="111.639" filterUnits="userSpaceOnUse" color-interpolation-filters="sRGB">
        <feFlood flood-opacity="0" result="BackgroundImageFix"/>
        <feBlend mode="normal" in="SourceGraphic" in2="BackgroundImageFix" result="shape"/>
        <feColorMatrix in="SourceAlpha" type="matrix" values="0 0 0 0 0 0 0 0 0 0 0 0 0 0 0 0 0 0 127 0" result="hardAlpha"/>
        <feOffset dx="8" dy="-15"/>
        <feGaussianBlur stdDeviation="15"/>
        <feComposite in2="hardAlpha" operator="arithmetic" k2="-1" k3="1"/>
        <feColorMatrix type="matrix" values="0 0 0 0 0 0 0 0 0 0 0 0 0 0 0 0 0 0 0.2 0"/>
        <feBlend mode="normal" in2="shape" result="effect1_innerShadow"/>
        <feColorMatrix in="SourceAlpha" type="matrix" values="0 0 0 0 0 0 0 0 0 0 0 0 0 0 0 0 0 0 127 0" result="hardAlpha"/>
        <feOffset dx="-18" dy="11"/>
        <feGaussianBlur stdDeviation="15"/>
        <feComposite in2="hardAlpha" operator="arithmetic" k2="-1" k3="1"/>
        <feColorMatrix type="matrix" values="0 0 0 0 1 0 0 0 0 1 0 0 0 0 1 0 0 0 1 0"/>
        <feBlend mode="normal" in2="effect1_innerShadow" result="effect2_innerShadow"/>
      </filter>
      <radialGradient id="paint0_radial" cx="0" cy="0" r="1" gradientUnits="userSpaceOnUse" gradientTransform="translate(121.947 58.3747) rotate(132.136) scale(52.0899)">
        <stop stop-color="#FFF72C"/>
        <stop offset="1" stop-color="#DF7800"/>
      </radialGradient>
      <linearGradient id="paint1_linear" x1="86.2296" y1="176.73" x2="183.484" y2="67.5849" gradientUnits="userSpaceOnUse">
      <stop stop-color="#254659"/>
      <stop offset="1" stop-color="#023553"/>
    </linearGradient>
  </defs>
</svg>
