<svg width="20" height="20" viewBox="0 0 20 20" fill="none" xmlns="http://www.w3.org/2000/svg">
<path d="M8.5 15H2V13H8.5C9.13875 13.0002 9.76525 13.1752 10.3116 13.5061C10.858 13.8369 11.3035 14.311 11.5997 14.8769C11.8959 15.4428 12.0316 16.079 11.992 16.7165C11.9525 17.3541 11.7393 17.9686 11.3755 18.4936C11.0116 19.0186 10.5111 19.434 9.92799 19.6949C9.34493 19.9557 8.7016 20.052 8.06772 19.9734C7.43383 19.8947 6.83356 19.6441 6.33194 19.2486C5.83032 18.8532 5.44647 18.328 5.222 17.73L7.095 17.027C7.19118 17.2833 7.35566 17.5084 7.57063 17.6779C7.78559 17.8474 8.04285 17.9548 8.31451 17.9886C8.58618 18.0223 8.86189 17.9811 9.11179 17.8693C9.36169 17.7575 9.57623 17.5795 9.73218 17.3545C9.88813 17.1295 9.97954 16.8661 9.9965 16.5929C10.0135 16.3197 9.95532 16.047 9.82839 15.8045C9.70145 15.5619 9.51057 15.3588 9.27641 15.2169C9.04225 15.0751 8.77375 15.0001 8.5 15ZM3 9H16.5C17.1387 9.00022 17.7653 9.17524 18.3116 9.50609C18.858 9.83695 19.3035 10.311 19.5997 10.8769C19.8959 11.4428 20.0316 12.079 19.992 12.7165C19.9525 13.3541 19.7393 13.9686 19.3755 14.4936C19.0116 15.0186 18.5111 15.434 17.928 15.6949C17.3449 15.9557 16.7016 16.052 16.0677 15.9734C15.4338 15.8947 14.8336 15.6441 14.3319 15.2486C13.8303 14.8532 13.4465 14.328 13.222 13.73L15.095 13.027C15.1912 13.2833 15.3557 13.5084 15.5706 13.6779C15.7856 13.8474 16.0428 13.9548 16.3145 13.9886C16.5862 14.0223 16.8619 13.981 17.1118 13.8693C17.3617 13.7575 17.5762 13.5795 17.7322 13.3545C17.8881 13.1295 17.9795 12.8661 17.9965 12.5929C18.0135 12.3197 17.9553 12.047 17.8284 11.8045C17.7015 11.5619 17.5106 11.3588 17.2764 11.2169C17.0423 11.0751 16.7738 11.0001 16.5 11H3C2.20435 11 1.44129 10.6839 0.87868 10.1213C0.316071 9.55871 0 8.79564 0 8C0 7.20435 0.316071 6.44128 0.87868 5.87867C1.44129 5.31607 2.20435 5 3 5H11.5C11.7738 4.99988 12.0423 4.92485 12.2764 4.78304C12.5106 4.64123 12.7015 4.43805 12.8284 4.1955C12.9553 3.95296 13.0135 3.6803 12.9965 3.40708C12.9795 3.13385 12.8881 2.87047 12.7322 2.64549C12.5762 2.4205 12.3617 2.24247 12.1118 2.13071C11.8619 2.01894 11.5862 1.97769 11.3145 2.01143C11.0428 2.04517 10.7856 2.15261 10.5706 2.3221C10.3557 2.4916 10.1912 2.7167 10.095 2.973L8.222 2.271C8.51047 1.5038 9.05898 0.862136 9.77194 0.457805C10.4849 0.0534749 11.3171 -0.0878893 12.1236 0.0583443C12.9301 0.204578 13.6597 0.629139 14.1853 1.25805C14.711 1.88696 14.9993 2.68036 15 3.5C15 4.42825 14.6313 5.31849 13.9749 5.97487C13.3185 6.63125 12.4283 7 11.5 7H3C2.73478 7 2.48043 7.10535 2.29289 7.29289C2.10536 7.48042 2 7.73478 2 8C2 8.26521 2.10536 8.51957 2.29289 8.7071C2.48043 8.89464 2.73478 9 3 9Z" fill="white"/>
</svg>
